<svg width="375" height="422" viewBox="0 0 375 422" fill="none" xmlns="http://www.w3.org/2000/svg">
<path fill-rule="evenodd" clip-rule="evenodd" d="M250 0H125V25H0V75H125V50H250V75H375V25H250V0ZM250 110H375V160H250V135H125V160H0V110H125V85H250V110ZM250 195H374.996C374.892 211.862 372.794 228.645 368.749 245H250V220H125V245H7.91513C3.454 228.686 0.857429 211.912 0.179412 195H125V170H250V195ZM250 280H356.8C337.613 323.479 304.335 359.613 261.917 382.263L187.5 422L114.402 381.115C73.131 358.031 40.4215 322.559 20.7058 280H125V255H250V280Z" fill="#D9D9D9"/>
</svg>
